<svg id="svg" version="1.1" width="400" height="373.68421052631584" viewBox="0 0 400 373.68421052631584" xmlns="http://www.w3.org/2000/svg" xmlns:xlink="http://www.w3.org/1999/xlink" ><g id="svgg"><path id="path0" d="M16.075 56.636 C 15.694 57.095,15.719 57.196,16.216 57.196 C 16.549 57.196,16.822 56.944,16.822 56.636 C 16.822 56.327,16.759 56.075,16.681 56.075 C 16.604 56.075,16.331 56.327,16.075 56.636 M40.968 142.750 C 40.832 142.970,41.048 144.544,41.447 146.248 C 41.847 147.952,42.285 150.885,42.420 152.765 C 42.556 154.646,42.910 156.994,43.208 157.982 C 43.505 158.971,43.918 161.714,44.126 164.078 C 44.333 166.443,44.738 169.172,45.027 170.144 C 45.315 171.115,45.669 173.310,45.814 175.020 C 46.155 179.066,46.154 179.065,50.064 179.065 C 53.549 179.065,54.206 178.779,54.206 177.259 C 54.206 176.759,54.522 175.825,54.908 175.184 C 55.294 174.543,55.726 173.365,55.869 172.566 C 56.011 171.767,56.452 170.508,56.849 169.768 C 57.246 169.028,57.570 168.077,57.570 167.655 C 57.570 167.232,57.897 166.246,58.296 165.463 C 58.695 164.680,59.127 163.563,59.255 162.980 C 59.757 160.693,60.987 160.654,61.692 162.902 C 61.933 163.671,62.450 164.983,62.841 165.819 C 63.232 166.655,63.551 167.644,63.551 168.018 C 63.551 168.391,63.867 169.221,64.254 169.862 C 64.640 170.504,65.072 171.682,65.215 172.481 C 65.357 173.280,65.798 174.539,66.195 175.279 C 66.591 176.019,66.916 177.000,66.916 177.458 C 66.916 178.729,68.087 179.105,71.679 178.986 L 74.941 178.879 75.374 175.831 C 75.611 174.154,75.990 172.220,76.215 171.532 C 76.439 170.843,76.787 168.397,76.987 166.095 C 77.187 163.794,77.597 161.018,77.898 159.927 C 78.199 158.836,78.553 156.514,78.685 154.766 C 78.817 153.019,79.260 150.183,79.670 148.464 C 81.004 142.862,80.342 141.792,76.039 142.599 C 74.544 142.879,74.493 143.066,74.002 150.093 C 73.786 153.178,73.364 156.710,73.064 157.944 C 72.763 159.178,72.357 162.612,72.160 165.576 C 71.963 168.539,71.618 171.147,71.392 171.370 C 70.816 171.940,68.905 169.582,68.388 167.664 C 68.166 166.841,67.683 165.579,67.315 164.860 C 66.947 164.140,66.528 162.908,66.385 162.122 C 66.242 161.336,65.798 160.159,65.400 159.505 C 65.002 158.852,64.675 158.016,64.674 157.648 C 64.672 156.449,62.489 152.252,61.770 152.064 C 60.280 151.675,58.645 152.213,58.246 153.224 C 58.033 153.764,57.542 154.897,57.154 155.742 C 56.766 156.587,56.449 157.687,56.449 158.186 C 56.449 158.686,56.123 159.733,55.725 160.513 C 55.327 161.294,54.823 162.764,54.605 163.780 C 54.387 164.797,53.972 166.002,53.682 166.459 C 53.393 166.916,53.044 167.989,52.906 168.844 C 51.934 174.891,49.625 170.837,48.933 161.869 C 48.719 159.093,48.304 155.873,48.010 154.712 C 47.717 153.551,47.328 150.473,47.147 147.872 C 46.966 145.270,46.705 143.029,46.566 142.890 C 46.121 142.445,41.232 142.323,40.968 142.750 M102.617 144.312 C 99.590 144.523,96.927 145.610,95.255 147.315 C 94.906 147.670,94.486 148.020,94.320 148.093 C 93.854 148.296,91.215 151.851,91.215 152.275 C 91.215 152.482,90.973 152.919,90.677 153.246 C 88.102 156.091,88.253 170.807,90.902 175.097 C 91.999 176.874,95.696 180.561,96.381 180.561 C 96.663 180.561,97.425 180.939,98.073 181.402 C 99.451 182.384,117.197 182.699,119.326 181.778 C 121.771 180.721,121.148 177.087,118.570 177.368 C 110.074 178.295,108.908 178.336,105.374 177.835 C 102.806 177.471,101.481 177.093,100.744 176.513 C 100.177 176.066,99.542 175.701,99.333 175.701 C 98.627 175.701,96.558 173.238,96.101 171.854 C 95.851 171.097,95.500 170.387,95.321 170.277 C 94.620 169.843,94.472 166.762,95.106 165.794 L 95.718 164.860 108.941 164.860 C 124.004 164.860,122.631 165.230,122.595 161.184 C 122.550 156.198,120.022 148.968,118.016 148.093 C 117.851 148.020,117.430 147.672,117.082 147.318 C 114.496 144.691,110.150 143.788,102.617 144.312 M108.112 148.449 C 110.650 148.976,113.845 151.114,114.378 152.641 C 114.597 153.269,115.029 154.063,115.339 154.406 C 116.097 155.243,116.255 159.291,115.562 160.128 C 115.029 160.771,99.375 161.090,96.506 160.516 C 94.979 160.211,94.307 158.128,95.315 156.822 C 95.474 156.617,95.818 155.776,96.080 154.953 C 97.616 150.136,102.784 147.342,108.112 148.449 M148.683 193.519 C 145.443 194.418,144.319 199.750,146.921 201.873 C 149.001 203.571,150.836 203.572,152.897 201.877 C 156.492 198.921,153.145 192.281,148.683 193.519 M90.357 193.879 C 90.212 194.024,90.093 206.124,90.093 220.766 L 90.093 247.389 90.935 247.615 C 91.748 247.833,95.622 247.947,95.778 247.757 C 95.820 247.706,95.946 241.845,96.058 234.733 L 96.262 221.803 99.097 218.996 C 105.188 212.965,110.116 212.375,113.509 217.269 L 114.579 218.813 114.697 232.774 L 114.815 246.735 115.894 247.293 C 117.649 248.201,120.312 248.039,120.571 247.009 C 120.687 246.547,120.727 239.607,120.661 231.589 L 120.541 217.009 119.553 215.230 C 115.299 207.567,105.455 206.958,98.408 213.923 C 96.473 215.836,96.282 215.013,96.075 203.885 L 95.888 193.832 93.255 193.723 C 91.806 193.664,90.503 193.734,90.357 193.879 M224.709 194.822 C 224.427 195.632,224.299 203.896,224.299 221.306 C 224.299 250.028,224.045 247.850,227.399 247.850 C 229.876 247.850,229.906 247.731,229.912 237.688 C 229.915 232.894,230.067 228.737,230.248 228.451 C 230.607 227.884,232.963 229.054,233.549 230.090 C 233.841 230.606,238.103 235.446,239.460 236.802 C 239.883 237.224,241.603 239.189,243.284 241.167 C 248.998 247.894,248.937 247.850,252.640 247.850 C 257.473 247.850,257.616 248.099,244.985 234.579 C 239.939 229.179,238.878 227.916,238.879 227.305 C 238.879 226.988,242.412 223.284,246.729 219.073 C 251.047 214.862,254.579 211.133,254.579 210.786 C 254.579 210.439,254.790 210.071,255.047 209.967 C 255.923 209.614,249.772 209.718,248.839 210.073 C 248.329 210.267,244.497 213.878,240.325 218.097 C 232.789 225.719,230.929 227.204,230.252 226.134 C 230.068 225.845,229.915 218.847,229.912 210.585 C 229.906 193.163,229.984 193.645,227.149 193.645 C 225.209 193.645,225.102 193.697,224.709 194.822 M54.766 198.456 L 53.271 198.692 53.084 203.589 C 52.840 209.983,53.091 209.720,47.251 209.720 C 42.079 209.720,42.023 209.754,42.309 212.752 L 42.430 214.019 46.997 214.206 C 53.440 214.469,52.858 213.155,53.084 227.957 C 53.250 238.814,53.344 240.291,53.925 241.111 C 54.285 241.620,54.579 242.321,54.579 242.669 C 54.579 243.731,58.670 247.033,60.332 247.314 C 61.136 247.450,62.351 247.794,63.034 248.080 C 64.776 248.807,70.241 248.711,73.645 247.893 L 76.449 247.219 76.560 244.918 C 76.688 242.273,76.583 242.215,73.424 243.174 C 66.394 245.306,59.847 242.235,59.254 236.525 C 58.816 232.310,59.193 215.422,59.737 214.878 C 60.093 214.522,62.391 214.343,68.336 214.206 L 76.449 214.019 76.449 211.963 L 76.449 209.907 68.432 209.805 C 58.369 209.679,59.120 210.187,58.982 203.409 L 58.879 198.318 57.570 198.269 C 56.850 198.242,55.589 198.326,54.766 198.456 M195.514 209.324 C 194.589 209.453,193.019 209.945,192.025 210.418 C 190.289 211.244,189.769 211.608,187.935 213.283 C 185.323 215.669,184.437 215.567,184.070 212.837 C 183.638 209.628,183.708 209.720,181.688 209.720 C 178.958 209.720,179.065 208.928,179.065 229.060 C 179.065 248.926,178.915 247.850,181.699 247.850 C 184.734 247.850,184.673 248.106,184.673 235.385 C 184.673 227.570,184.811 223.836,185.140 222.761 C 185.657 221.073,190.420 215.936,191.881 215.491 C 192.337 215.352,193.022 214.964,193.404 214.629 C 195.673 212.633,200.810 214.503,202.710 218.016 L 203.738 219.917 203.738 233.251 C 203.738 248.857,203.557 248.072,207.098 247.751 C 208.440 247.630,209.586 247.324,209.766 247.040 C 210.178 246.391,210.136 223.184,209.719 220.748 C 208.174 211.714,203.771 208.173,195.514 209.324 M136.912 210.462 C 135.154 213.278,136.444 214.206,142.118 214.206 C 148.218 214.206,147.664 212.737,147.664 228.889 C 147.664 244.943,148.386 243.364,141.039 243.364 C 135.311 243.364,135.327 243.358,135.327 245.607 C 135.327 247.992,134.412 247.851,149.853 247.845 C 165.329 247.839,165.707 247.790,165.907 245.754 C 166.091 243.877,165.339 243.576,159.904 243.351 C 153.383 243.081,154.019 244.920,154.019 226.314 C 154.019 217.838,153.917 210.636,153.792 210.311 C 153.401 209.293,137.554 209.436,136.912 210.462 M159.716 260.246 C 159.380 260.583,159.252 262.631,159.252 267.693 C 159.252 276.186,159.599 275.669,154.128 275.326 C 149.528 275.037,143.594 275.792,142.593 276.793 C 142.268 277.117,141.778 277.383,141.504 277.383 C 138.960 277.383,134.174 284.397,133.242 289.492 C 132.278 294.760,132.217 296.192,132.829 299.285 C 133.150 300.912,133.527 303.044,133.666 304.023 C 133.804 305.002,134.081 305.904,134.280 306.027 C 134.479 306.150,134.951 306.947,135.329 307.798 C 136.103 309.540,137.783 311.349,140.000 312.829 C 142.124 314.246,149.450 314.352,151.181 312.991 C 151.769 312.528,152.469 312.150,152.736 312.150 C 153.004 312.150,154.453 310.983,155.957 309.557 C 159.221 306.463,159.571 306.564,159.941 310.702 L 160.187 313.458 162.430 313.458 L 164.673 313.458 164.673 286.729 L 164.673 260.000 162.427 259.891 C 161.002 259.822,160.011 259.952,159.716 260.246 M104.860 274.675 C 101.887 275.075,97.415 276.349,96.341 277.103 C 92.799 279.588,90.076 282.638,89.563 284.692 C 89.411 285.298,89.006 286.106,88.662 286.488 C 87.602 287.664,87.741 301.753,88.830 303.551 C 89.267 304.271,89.732 305.319,89.864 305.880 C 90.185 307.246,94.861 311.853,96.473 312.393 C 97.179 312.629,98.514 313.108,99.439 313.457 C 102.403 314.574,109.756 314.084,113.040 312.551 C 118.606 309.952,121.809 305.399,123.034 298.346 L 123.781 294.041 122.997 289.396 C 122.470 286.278,121.971 284.446,121.480 283.821 C 121.077 283.309,120.748 282.658,120.748 282.376 C 120.748 280.305,115.289 276.485,110.931 275.506 C 106.639 274.542,106.247 274.488,104.860 274.675 M60.920 275.465 C 58.071 275.912,56.685 276.315,55.916 276.920 C 55.331 277.380,54.627 277.757,54.352 277.757 C 53.213 277.757,48.072 283.641,47.629 285.452 C 47.482 286.052,47.051 287.128,46.672 287.845 C 45.643 289.787,45.648 300.511,46.679 302.435 C 47.063 303.152,47.500 304.299,47.650 304.984 C 49.076 311.487,64.390 316.495,72.362 313.065 C 73.171 312.717,74.084 312.309,74.393 312.157 C 74.796 311.958,74.953 311.265,74.953 309.679 L 74.953 307.477 73.832 307.594 C 73.215 307.659,72.299 307.979,71.796 308.305 C 69.997 309.472,62.560 309.452,60.070 308.274 C 58.926 307.733,57.847 307.290,57.671 307.290 C 57.174 307.290,54.363 304.239,53.710 302.991 C 52.329 300.351,52.241 299.881,52.216 294.953 C 52.196 290.936,52.316 289.678,52.806 288.785 C 53.144 288.168,53.637 287.243,53.900 286.729 C 56.772 281.116,61.502 279.070,69.027 280.185 C 71.258 280.516,73.447 281.024,73.891 281.314 C 74.930 281.993,75.140 281.515,75.140 278.481 C 75.140 276.499,75.055 276.257,74.299 276.088 C 73.369 275.880,65.069 274.743,64.940 274.806 C 64.896 274.828,63.087 275.124,60.920 275.465 M189.992 275.502 C 188.497 275.864,186.970 276.435,186.598 276.772 C 186.227 277.108,185.755 277.383,185.550 277.383 C 184.998 277.383,181.000 281.449,180.737 282.277 C 180.612 282.670,180.360 282.991,180.176 282.991 C 179.992 282.991,179.598 283.790,179.301 284.766 C 179.003 285.743,178.483 287.082,178.145 287.743 C 177.035 289.908,177.315 301.041,178.527 302.991 C 178.783 303.402,179.113 304.327,179.260 305.047 C 179.554 306.481,179.806 306.822,182.746 309.774 C 183.846 310.877,185.191 311.887,185.737 312.018 C 186.283 312.149,187.402 312.610,188.224 313.044 C 190.688 314.342,204.238 314.236,206.916 312.897 C 210.197 311.256,209.712 307.979,206.303 308.765 C 203.685 309.368,192.527 309.256,191.402 308.615 C 190.888 308.322,189.953 307.842,189.325 307.548 C 186.441 306.201,184.320 303.180,183.904 299.828 C 183.457 296.221,182.564 296.454,196.962 296.411 C 203.876 296.391,209.953 296.258,210.467 296.116 C 212.075 295.671,211.951 292.231,210.046 284.436 C 209.864 283.689,209.463 282.869,209.156 282.615 C 208.849 282.360,208.598 281.982,208.598 281.775 C 208.598 281.568,207.976 280.706,207.216 279.858 C 203.257 275.447,196.882 273.834,189.992 275.502 M198.613 279.960 C 201.019 281.187,203.277 283.275,203.751 284.711 C 203.995 285.449,204.427 286.500,204.712 287.045 C 205.377 288.320,205.382 290.627,204.721 291.175 C 204.358 291.476,201.260 291.572,194.160 291.502 L 184.112 291.402 184.001 289.697 C 183.888 287.966,184.068 287.372,185.534 284.633 C 188.053 279.923,194.221 277.720,198.613 279.960 M107.744 279.779 C 108.625 280.069,109.853 280.410,110.472 280.537 C 112.608 280.975,115.383 284.345,116.651 288.037 C 119.220 295.520,116.908 303.694,110.992 308.037 C 109.073 309.447,101.800 309.452,99.813 308.046 C 98.041 306.791,96.075 304.971,96.075 304.584 C 96.075 304.411,95.757 303.813,95.368 303.256 C 92.964 299.809,93.164 289.973,95.731 285.425 C 98.217 281.020,103.692 278.447,107.744 279.779 M154.951 280.198 C 159.285 281.028,159.047 280.437,159.178 290.644 L 159.290 299.394 158.310 300.947 C 150.044 314.041,138.620 310.792,138.530 295.320 C 138.461 283.481,144.250 278.150,154.951 280.198 M217.664 325.107 C 216.745 325.478,217.065 329.223,218.037 329.484 C 219.140 329.780,258.453 329.788,259.222 329.493 C 260.064 329.169,260.064 325.410,259.222 325.087 C 258.515 324.816,218.337 324.836,217.664 325.107 " stroke="none" fill="#fefefe" fill-rule="evenodd"></path><path id="path1" d="" stroke="none" fill="#0000ff" fill-rule="evenodd"></path><path id="path2" d="M62.430 0.561 C 62.430 1.060,61.999 1.282,61.238 1.173 C 61.096 1.153,60.873 1.475,60.741 1.889 C 60.610 2.302,60.095 3.081,59.597 3.618 C 59.099 4.155,58.692 4.923,58.692 5.323 C 58.692 5.737,58.369 6.136,57.944 6.247 C 57.533 6.354,57.196 6.747,57.196 7.120 C 57.196 7.539,56.874 7.844,56.355 7.918 C 55.815 7.995,55.471 8.338,55.395 8.879 C 55.287 9.637,54.919 9.891,54.112 9.764 C 53.842 9.721,53.762 9.938,53.682 10.935 C 53.662 11.192,53.309 11.493,52.899 11.605 C 52.489 11.717,52.104 12.138,52.043 12.540 C 51.775 14.325,51.547 14.953,51.168 14.953 C 50.943 14.953,50.863 14.661,50.989 14.299 C 51.179 13.754,51.123 13.766,50.655 14.371 C 50.346 14.770,50.093 15.485,50.093 15.959 C 50.093 16.631,49.886 16.822,49.159 16.822 C 48.484 16.822,48.224 17.023,48.224 17.545 C 48.224 17.942,47.888 18.374,47.477 18.505 C 47.065 18.635,46.729 18.987,46.729 19.287 C 46.729 19.586,46.308 19.991,45.794 20.187 C 45.248 20.395,44.860 20.839,44.860 21.256 C 44.860 21.666,44.526 22.056,44.075 22.174 C 43.642 22.287,43.400 22.559,43.536 22.779 C 43.671 22.998,43.604 23.178,43.387 23.178 C 43.169 23.178,42.991 23.390,42.991 23.649 C 42.991 23.908,42.570 24.573,42.056 25.128 C 41.542 25.682,41.121 26.395,41.121 26.713 C 41.121 27.040,40.799 27.290,40.374 27.290 C 39.826 27.290,39.626 27.539,39.626 28.224 C 39.626 28.972,39.439 29.159,38.692 29.159 C 38.017 29.159,37.757 29.360,37.757 29.881 C 37.757 30.279,37.429 30.708,37.028 30.835 C 36.350 31.050,35.638 32.330,35.820 33.008 C 35.864 33.172,35.603 33.256,35.240 33.195 C 34.596 33.087,34.528 33.244,34.436 35.047 C 34.403 35.683,34.165 35.888,33.458 35.888 C 32.717 35.888,32.523 36.076,32.523 36.796 C 32.523 37.454,32.291 37.738,31.682 37.824 C 31.142 37.901,30.798 38.245,30.722 38.785 C 30.645 39.326,30.344 39.626,29.881 39.626 C 29.405 39.626,29.159 39.884,29.159 40.383 C 29.159 40.846,28.796 41.278,28.224 41.495 C 27.678 41.703,27.290 42.147,27.290 42.564 C 27.290 42.956,26.972 43.360,26.583 43.462 C 26.096 43.590,25.795 44.127,25.615 45.188 C 25.411 46.395,25.192 46.729,24.605 46.729 C 24.182 46.729,23.774 47.039,23.669 47.442 C 23.566 47.834,23.161 48.239,22.769 48.342 C 22.364 48.448,22.056 48.855,22.056 49.285 C 22.056 49.780,21.771 50.083,21.230 50.161 C 20.712 50.236,20.320 50.628,20.176 51.215 C 20.038 51.782,19.703 52.129,19.324 52.098 C 18.981 52.070,18.794 52.200,18.910 52.388 C 19.026 52.575,18.604 53.183,17.972 53.737 C 17.127 54.478,16.822 55.071,16.822 55.971 C 16.822 56.965,16.675 57.196,16.040 57.196 C 15.584 57.196,15.179 57.494,15.071 57.909 C 14.968 58.302,14.551 58.710,14.143 58.816 C 13.736 58.923,13.315 59.343,13.209 59.751 C 13.102 60.158,12.694 60.576,12.302 60.678 C 11.897 60.784,11.589 61.191,11.589 61.621 C 11.589 62.120,11.304 62.419,10.751 62.497 C 10.280 62.565,9.854 62.932,9.777 63.337 C 9.701 63.733,9.355 64.322,9.008 64.645 C 8.660 64.969,8.560 65.150,8.785 65.047 C 9.010 64.944,8.892 65.139,8.522 65.480 C 8.153 65.822,7.850 66.453,7.850 66.882 C 7.850 67.399,7.611 67.664,7.143 67.664 C 6.701 67.664,6.348 68.013,6.202 68.598 C 6.050 69.202,5.705 69.533,5.227 69.533 C 4.735 69.533,4.486 69.784,4.486 70.280 C 4.486 70.692,4.306 71.028,4.085 71.028 C 3.483 71.028,2.538 72.094,2.785 72.494 C 2.904 72.686,2.636 72.898,2.189 72.964 C 1.719 73.033,1.331 73.395,1.270 73.822 C 1.211 74.227,0.893 74.757,0.562 74.999 C 0.099 75.337,0.072 75.483,0.447 75.634 C 0.816 75.781,0.821 75.836,0.467 75.858 C 0.094 75.882,0.000 105.947,0.000 224.860 L 0.000 373.832 200.000 373.832 L 400.000 373.832 400.000 186.916 L 400.000 0.000 231.215 0.000 C 81.433 0.000,62.430 0.063,62.430 0.561 M47.381 142.150 C 47.584 142.407,47.843 143.905,47.956 145.480 C 48.069 147.055,48.361 148.716,48.605 149.172 C 48.849 149.628,49.209 152.377,49.406 155.281 C 49.602 158.185,49.994 161.402,50.278 162.430 C 50.561 163.458,50.909 165.140,51.050 166.168 C 51.443 169.018,51.851 169.425,52.159 167.275 C 52.305 166.255,52.720 164.916,53.081 164.299 C 53.441 163.682,53.850 162.425,53.989 161.505 C 54.128 160.585,54.491 159.557,54.795 159.220 C 55.100 158.884,55.507 157.642,55.699 156.461 C 55.891 155.280,56.245 154.077,56.485 153.788 C 56.725 153.499,57.193 152.717,57.526 152.052 C 58.098 150.907,58.256 150.835,60.429 150.731 L 62.728 150.620 63.922 152.390 C 64.579 153.363,65.207 154.759,65.317 155.491 C 65.427 156.223,65.818 157.327,66.185 157.944 C 66.553 158.561,66.973 159.738,67.119 160.561 C 67.265 161.383,67.610 162.315,67.885 162.632 C 68.160 162.949,68.574 164.084,68.803 165.155 C 69.033 166.226,69.417 167.100,69.657 167.097 C 70.957 167.080,71.136 166.429,71.466 160.505 C 71.649 157.224,72.062 153.662,72.391 152.523 C 72.718 151.393,73.093 148.652,73.223 146.434 C 73.399 143.456,73.607 142.308,74.020 142.047 C 74.874 141.508,80.581 141.591,81.039 142.150 C 81.575 142.803,80.944 151.257,80.221 153.119 C 79.909 153.922,79.491 156.682,79.291 159.252 C 79.092 161.822,78.687 164.514,78.391 165.234 C 78.096 165.953,77.743 168.344,77.608 170.546 C 77.362 174.544,76.432 178.367,75.276 180.131 C 73.926 182.191,66.168 180.742,66.168 178.429 C 66.168 178.124,65.851 177.472,65.464 176.979 C 65.076 176.487,64.641 175.299,64.498 174.339 C 64.354 173.380,63.930 172.158,63.557 171.624 C 63.184 171.091,62.773 169.923,62.644 169.028 C 62.515 168.134,62.162 167.155,61.859 166.852 C 61.556 166.550,61.203 165.641,61.074 164.833 C 60.778 162.981,60.346 162.954,60.010 164.766 C 59.867 165.537,59.513 166.432,59.224 166.755 C 58.935 167.078,58.527 168.244,58.318 169.346 C 58.109 170.448,57.702 171.614,57.413 171.937 C 57.125 172.259,56.770 173.324,56.626 174.303 C 56.481 175.282,56.045 176.487,55.658 176.979 C 55.270 177.472,54.953 178.124,54.953 178.429 C 54.953 180.157,53.680 180.748,49.956 180.748 C 45.770 180.748,45.437 180.509,45.015 177.208 C 44.871 176.083,44.526 174.620,44.249 173.956 C 43.972 173.293,43.645 171.016,43.523 168.898 C 43.401 166.780,42.986 163.953,42.601 162.617 C 42.215 161.280,41.787 158.336,41.648 156.075 C 41.502 153.681,41.167 151.510,40.847 150.879 C 40.051 149.311,39.714 142.467,40.411 142.025 C 41.238 141.502,46.949 141.603,47.381 142.150 M109.748 143.205 C 113.035 143.529,114.091 143.784,115.160 144.514 C 115.891 145.012,116.626 145.421,116.793 145.421 C 117.091 145.421,118.988 147.345,120.654 149.338 C 121.117 149.891,121.495 150.643,121.495 151.009 C 121.495 151.375,121.872 152.154,122.333 152.740 C 123.474 154.190,123.858 163.865,122.837 165.423 L 122.226 166.355 109.834 166.355 C 95.212 166.355,95.875 166.180,96.714 169.810 C 97.290 172.302,98.678 174.146,100.748 175.167 C 101.364 175.472,102.290 175.973,102.804 176.282 C 104.284 177.170,117.077 176.871,118.847 175.906 C 121.035 174.714,122.792 179.767,121.028 182.178 C 119.497 184.270,98.885 184.143,96.611 182.027 C 96.187 181.632,95.649 181.308,95.416 181.308 C 95.024 181.308,93.909 180.435,92.208 178.795 C 90.976 177.608,88.972 174.336,88.972 173.511 C 88.972 173.069,88.636 172.080,88.224 171.313 C 87.158 169.322,87.122 158.761,88.174 156.445 C 88.549 155.620,88.975 154.308,89.121 153.528 C 89.267 152.748,89.615 152.023,89.893 151.916 C 90.172 151.809,90.496 151.339,90.613 150.872 C 90.881 149.803,94.869 145.611,95.937 145.275 C 96.375 145.137,97.102 144.705,97.552 144.315 C 98.093 143.845,99.214 143.526,100.867 143.371 C 102.241 143.243,103.701 143.085,104.112 143.022 C 104.523 142.958,105.041 142.883,105.262 142.855 C 105.483 142.827,107.502 142.984,109.748 143.205 M101.470 150.371 C 100.867 150.868,100.077 151.383,99.714 151.516 C 99.351 151.648,98.881 152.223,98.669 152.794 C 98.457 153.365,98.009 154.040,97.674 154.295 C 97.096 154.734,96.346 158.353,96.704 158.972 C 96.794 159.126,100.978 159.252,106.003 159.252 L 115.140 159.252 115.140 158.176 C 115.140 156.671,113.323 152.860,112.177 151.963 C 111.652 151.551,110.885 150.879,110.472 150.467 C 109.213 149.213,102.954 149.146,101.470 150.371 M96.496 193.141 C 96.895 193.621,97.027 195.773,97.088 202.768 C 97.131 207.722,97.173 212.162,97.181 212.635 C 97.195 213.450,97.266 213.426,98.554 212.175 C 102.462 208.380,112.045 206.724,115.467 209.252 C 116.093 209.715,116.721 210.093,116.863 210.093 C 117.206 210.093,119.626 212.597,119.626 212.952 C 119.626 213.105,120.027 213.829,120.517 214.559 C 121.744 216.391,122.249 222.622,122.246 235.890 C 122.242 249.539,122.312 249.331,117.709 249.340 C 113.554 249.348,113.863 250.555,113.645 233.494 C 113.459 218.953,113.454 218.873,112.617 218.037 C 112.154 217.575,111.776 217.040,111.776 216.849 C 111.776 215.988,107.897 215.333,105.907 215.858 C 103.036 216.615,103.362 216.369,97.970 221.869 C 97.275 222.577,97.231 223.289,97.123 235.364 C 96.989 250.412,97.315 249.346,92.842 249.346 C 89.814 249.346,89.688 249.311,89.337 248.387 C 88.649 246.578,88.861 193.809,89.559 193.111 C 90.418 192.252,95.778 192.276,96.496 193.141 M153.807 193.622 C 154.328 194.111,154.863 194.855,154.996 195.275 C 155.130 195.696,155.469 196.270,155.750 196.551 C 156.417 197.218,156.409 199.413,155.738 199.970 C 155.449 200.209,155.116 200.793,154.997 201.268 C 154.370 203.764,149.240 205.041,146.752 203.321 C 141.281 199.539,143.718 192.296,150.356 192.613 C 152.379 192.710,153.043 192.904,153.807 193.622 M230.928 193.384 C 231.534 193.990,231.598 195.282,231.699 208.889 C 231.759 217.054,231.928 223.853,232.074 223.999 C 232.219 224.145,235.854 220.739,240.151 216.431 L 247.964 208.598 252.161 208.598 C 258.447 208.598,258.594 209.433,253.211 214.577 C 238.616 228.525,239.314 227.605,241.928 229.460 C 242.307 229.729,242.617 230.180,242.617 230.463 C 242.617 230.746,242.953 231.084,243.364 231.215 C 243.776 231.345,244.112 231.591,244.112 231.760 C 244.112 231.929,245.332 233.326,246.822 234.865 C 248.313 236.404,251.131 239.388,253.084 241.497 C 255.037 243.606,256.905 245.604,257.234 245.937 C 259.533 248.260,258.334 249.346,253.469 249.346 C 248.815 249.346,248.872 249.374,245.234 245.251 C 244.308 244.203,242.794 242.526,241.869 241.524 C 240.944 240.523,239.682 239.064,239.065 238.281 C 237.877 236.775,236.791 235.554,234.381 233.017 C 233.565 232.157,232.897 231.274,232.897 231.054 C 232.897 230.834,232.645 230.654,232.336 230.654 C 231.856 230.654,231.776 231.770,231.776 238.449 C 231.776 249.062,231.650 249.346,226.940 249.346 C 222.367 249.346,222.783 252.296,222.895 220.663 L 222.991 193.480 223.925 192.987 C 225.308 192.258,230.072 192.528,230.928 193.384 M59.439 196.627 C 59.883 196.907,60.039 198.169,60.187 202.696 L 60.374 208.411 68.598 208.509 C 75.796 208.594,76.881 208.684,77.290 209.234 C 77.894 210.047,77.884 213.747,77.274 214.953 L 76.801 215.888 68.588 216.075 L 60.374 216.262 60.275 227.114 L 60.176 237.966 61.957 239.869 C 63.679 241.708,68.346 243.020,69.854 242.089 C 70.620 241.615,77.102 241.787,77.441 242.289 C 77.984 243.093,77.637 247.757,76.986 248.407 C 75.370 250.024,62.644 250.236,60.143 248.688 C 59.399 248.227,58.530 247.850,58.212 247.850 C 57.484 247.850,53.832 244.418,53.832 243.734 C 53.832 243.455,53.453 242.823,52.991 242.331 C 52.159 241.446,52.148 241.298,52.024 229.038 C 51.934 220.129,51.777 216.562,51.464 216.363 C 51.224 216.211,49.044 216.084,46.619 216.080 C 41.127 216.073,40.374 215.601,40.374 212.167 C 40.374 208.967,40.930 208.598,45.748 208.598 C 47.881 208.598,50.147 208.494,50.784 208.367 L 51.942 208.135 52.046 203.266 C 52.129 199.382,52.263 198.343,52.710 198.125 C 56.566 196.251,58.249 195.876,59.439 196.627 M205.075 209.658 C 207.071 210.978,209.344 213.574,209.348 214.539 C 209.350 214.869,209.685 215.645,210.093 216.262 C 210.948 217.553,211.278 247.084,210.454 248.623 C 210.119 249.250,209.649 249.346,206.916 249.346 C 202.725 249.346,202.992 250.278,202.982 235.632 C 202.973 223.384,202.902 222.531,201.581 218.724 C 200.830 216.559,200.454 216.285,197.449 215.718 C 194.631 215.187,192.423 216.176,189.159 219.433 L 186.355 222.230 186.168 235.258 C 185.951 250.432,186.288 249.346,181.792 249.346 C 177.318 249.346,177.572 250.584,177.577 228.785 C 177.582 207.246,177.280 208.785,181.496 208.785 L 184.465 208.785 185.063 210.404 C 185.927 212.744,186.425 212.896,188.275 211.381 C 189.139 210.673,189.972 210.093,190.127 210.093 C 190.282 210.093,190.709 209.821,191.077 209.489 C 193.063 207.691,202.268 207.803,205.075 209.658 M154.832 210.280 C 154.978 211.103,155.107 218.547,155.119 226.822 L 155.140 241.869 160.552 241.869 C 167.031 241.869,167.315 242.048,167.033 245.953 C 166.768 249.607,168.048 249.346,150.416 249.346 L 134.942 249.346 134.179 248.131 C 133.603 247.212,133.454 246.476,133.572 245.112 C 133.823 242.206,134.095 242.084,140.853 241.869 L 146.729 241.682 146.729 228.972 L 146.729 216.262 141.627 216.075 C 135.226 215.840,134.953 215.671,134.953 211.923 C 134.953 208.478,134.564 208.598,145.414 208.699 L 154.567 208.785 154.832 210.280 M165.761 259.094 L 166.729 260.244 166.729 286.700 C 166.729 317.145,167.097 314.397,162.979 314.695 C 159.721 314.930,158.879 314.283,158.879 311.545 L 158.879 309.462 157.103 310.496 C 156.126 311.065,155.107 311.838,154.839 312.214 C 154.570 312.590,154.160 312.897,153.928 312.897 C 153.696 312.897,153.153 313.229,152.721 313.635 C 150.461 315.758,141.968 315.611,138.560 313.391 C 136.003 311.725,133.234 307.814,132.841 305.314 C 132.705 304.447,132.325 303.325,131.998 302.820 C 130.986 301.261,130.903 290.990,131.885 288.892 C 132.298 288.011,132.743 286.664,132.874 285.900 C 133.006 285.135,133.366 284.257,133.675 283.948 C 133.984 283.639,134.416 282.874,134.634 282.246 C 134.853 281.619,135.351 280.935,135.740 280.727 C 136.130 280.518,136.449 280.107,136.449 279.813 C 136.449 279.519,136.781 279.101,137.188 278.883 C 137.595 278.665,138.344 278.071,138.853 277.561 C 139.362 277.052,139.970 276.636,140.204 276.636 C 140.438 276.636,141.057 276.299,141.580 275.888 C 142.103 275.477,142.973 275.140,143.514 275.140 C 144.055 275.140,145.154 274.788,145.958 274.357 C 147.273 273.652,147.913 273.587,152.397 273.703 C 158.343 273.857,157.757 274.665,157.757 266.308 C 157.757 258.220,157.903 257.944,162.193 257.944 C 164.638 257.944,164.851 258.013,165.761 259.094 M71.589 274.219 C 72.206 274.516,73.383 274.892,74.206 275.054 C 76.080 275.423,77.008 277.027,77.009 279.898 C 77.010 282.912,74.325 284.025,72.042 281.958 C 71.026 281.039,60.865 280.982,60.110 281.891 C 59.844 282.211,59.027 282.866,58.294 283.345 C 54.057 286.121,51.519 295.463,53.791 299.920 C 54.180 300.683,54.594 301.688,54.711 302.155 C 55.040 303.465,58.322 306.402,59.817 306.725 C 60.535 306.879,61.610 307.256,62.208 307.561 C 63.534 308.240,66.382 308.049,71.215 306.957 C 75.406 306.011,75.357 306.011,76.262 306.916 C 78.160 308.815,76.720 313.124,73.832 314.185 C 70.637 315.360,57.100 314.959,55.424 313.641 C 54.904 313.232,54.189 312.897,53.836 312.897 C 53.482 312.897,52.754 312.519,52.218 312.056 C 51.682 311.593,50.651 310.710,49.928 310.093 C 49.205 309.477,48.610 308.768,48.606 308.518 C 48.602 308.268,48.262 307.884,47.850 307.664 C 47.439 307.443,47.103 307.058,47.103 306.806 C 47.103 306.555,46.703 305.594,46.215 304.670 C 44.368 301.174,44.238 287.169,46.040 285.838 C 46.351 285.608,46.728 284.927,46.878 284.324 C 47.028 283.721,47.572 282.712,48.085 282.081 C 50.528 279.082,51.058 278.520,51.455 278.513 C 51.690 278.508,51.982 278.245,52.104 277.928 C 52.225 277.611,52.790 277.148,53.359 276.899 C 53.927 276.650,54.813 276.171,55.327 275.835 C 55.841 275.499,56.935 275.107,57.757 274.964 C 58.579 274.820,59.508 274.474,59.820 274.194 C 60.867 273.256,69.629 273.275,71.589 274.219 M111.857 274.159 C 112.326 274.459,113.434 274.896,114.318 275.129 C 115.203 275.362,116.020 275.797,116.134 276.094 C 116.248 276.392,116.598 276.636,116.910 276.636 C 117.559 276.636,121.495 280.656,121.495 281.318 C 121.495 281.557,121.828 282.055,122.236 282.423 C 122.643 282.792,123.076 283.701,123.199 284.444 C 123.322 285.187,123.746 286.583,124.141 287.546 C 125.096 289.872,125.185 298.245,124.274 299.992 C 123.955 300.605,123.524 301.896,123.317 302.861 C 123.110 303.826,122.616 304.991,122.218 305.449 C 121.821 305.908,121.495 306.501,121.495 306.768 C 121.495 307.477,116.543 312.384,115.490 312.718 C 114.997 312.874,114.170 313.315,113.652 313.696 C 111.027 315.631,99.063 315.632,96.441 313.697 C 95.923 313.315,95.135 312.886,94.689 312.745 C 93.384 312.331,89.722 308.479,88.974 306.734 C 88.596 305.851,88.120 305.026,87.916 304.901 C 87.713 304.775,87.432 303.789,87.292 302.710 C 87.151 301.631,86.799 300.027,86.509 299.146 C 85.832 297.089,85.832 292.817,86.509 290.761 C 86.799 289.880,87.150 288.285,87.289 287.216 C 87.428 286.148,87.863 284.902,88.257 284.449 C 88.650 283.995,88.972 283.439,88.972 283.213 C 88.972 282.053,93.230 277.251,94.660 276.797 C 95.067 276.668,95.698 276.265,96.060 275.902 C 96.423 275.539,97.374 275.121,98.173 274.973 C 98.972 274.824,99.879 274.477,100.187 274.202 C 101.344 273.167,110.259 273.134,111.857 274.159 M201.003 274.381 C 201.782 274.799,202.674 275.143,202.985 275.147 C 205.143 275.173,210.381 280.791,211.039 283.786 C 211.189 284.473,211.579 285.441,211.903 285.936 C 212.610 287.016,212.988 295.532,212.369 296.449 C 212.046 296.927,209.968 297.025,198.285 297.116 L 184.580 297.223 184.759 299.083 C 184.857 300.105,185.201 301.235,185.524 301.593 C 185.846 301.950,186.224 302.699,186.363 303.256 C 186.670 304.488,188.959 306.082,192.513 307.539 C 194.856 308.499,202.460 308.518,204.774 307.570 C 208.671 305.973,210.841 306.982,210.841 310.392 C 210.841 313.336,209.640 314.252,205.395 314.543 C 203.559 314.670,200.666 314.957,198.967 315.183 C 197.269 315.408,195.495 315.497,195.027 315.379 C 194.558 315.261,192.605 314.987,190.687 314.770 C 188.227 314.491,186.921 314.157,186.259 313.636 C 185.742 313.230,185.110 312.897,184.854 312.897 C 183.525 312.897,179.174 308.277,178.499 306.150 C 178.341 305.654,177.915 304.824,177.552 304.306 C 175.900 301.952,175.997 287.179,177.676 285.323 C 178.029 284.933,178.318 284.346,178.318 284.018 C 178.318 283.690,178.700 282.946,179.168 282.365 C 179.636 281.784,180.241 280.888,180.512 280.374 C 180.959 279.527,181.633 278.919,185.234 276.111 C 185.850 275.630,186.944 275.112,187.664 274.960 C 188.383 274.808,189.224 274.463,189.533 274.193 C 190.864 273.030,198.722 273.159,201.003 274.381 M191.524 281.016 C 190.293 281.170,186.542 284.443,186.542 285.362 C 186.542 285.616,186.207 286.481,185.797 287.285 C 185.387 288.089,185.009 289.176,184.956 289.700 L 184.860 290.654 193.458 290.760 C 204.497 290.895,203.684 291.142,203.282 287.776 C 202.643 282.432,198.631 280.125,191.524 281.016 M101.576 281.366 C 101.209 281.470,100.528 281.920,100.062 282.366 C 99.597 282.813,98.677 283.641,98.019 284.208 C 97.361 284.775,96.822 285.552,96.822 285.934 C 96.822 286.316,96.445 287.108,95.984 287.694 C 94.696 289.332,94.694 300.198,95.981 301.835 C 96.444 302.423,96.822 303.122,96.822 303.388 C 96.822 304.115,99.121 306.397,100.187 306.729 C 100.701 306.889,101.708 307.333,102.424 307.716 C 104.297 308.715,106.931 308.621,109.080 307.477 C 110.045 306.963,111.047 306.542,111.305 306.542 C 111.564 306.542,111.776 306.286,111.776 305.972 C 111.776 305.659,112.196 305.242,112.710 305.047 C 113.239 304.846,113.645 304.393,113.645 304.005 C 113.645 303.627,113.989 302.949,114.410 302.498 C 116.468 300.288,116.293 288.020,114.167 285.494 C 113.674 284.908,113.271 284.189,113.271 283.897 C 113.271 283.604,113.043 283.364,112.765 283.364 C 112.486 283.364,111.772 282.902,111.176 282.336 C 110.105 281.319,103.940 280.696,101.576 281.366 M146.721 281.421 C 145.202 281.946,143.529 283.336,141.887 285.437 C 139.756 288.163,139.551 304.673,141.647 304.673 C 141.806 304.673,142.129 305.097,142.365 305.615 C 142.601 306.133,143.175 306.729,143.640 306.939 C 144.105 307.150,144.907 307.569,145.421 307.870 C 148.105 309.445,156.840 303.290,157.585 299.300 C 158.021 296.961,157.603 282.311,157.084 281.794 C 156.548 281.258,148.072 280.953,146.721 281.421 M261.152 324.651 C 262.039 325.865,261.848 329.187,260.851 329.885 C 259.393 330.907,217.105 330.750,216.075 329.720 C 214.675 328.320,215.216 324.816,216.940 324.109 C 218.811 323.341,260.569 323.853,261.152 324.651 " stroke="none" fill="#238dfa" fill-rule="evenodd"></path><path id="path3" d="M40.411 142.025 C 39.714 142.467,40.051 149.311,40.847 150.879 C 41.167 151.510,41.502 153.681,41.648 156.075 C 41.787 158.336,42.215 161.280,42.601 162.617 C 42.986 163.953,43.401 166.780,43.523 168.898 C 43.645 171.016,43.972 173.293,44.249 173.956 C 44.526 174.620,44.871 176.083,45.015 177.208 C 45.437 180.509,45.770 180.748,49.956 180.748 C 53.680 180.748,54.953 180.157,54.953 178.429 C 54.953 178.124,55.270 177.472,55.658 176.979 C 56.045 176.487,56.481 175.282,56.626 174.303 C 56.770 173.324,57.125 172.259,57.413 171.937 C 57.702 171.614,58.109 170.448,58.318 169.346 C 58.527 168.244,58.935 167.078,59.224 166.755 C 59.513 166.432,59.867 165.537,60.010 164.766 C 60.346 162.954,60.778 162.981,61.074 164.833 C 61.203 165.641,61.556 166.550,61.859 166.852 C 62.162 167.155,62.515 168.134,62.644 169.028 C 62.773 169.923,63.184 171.091,63.557 171.624 C 63.930 172.158,64.354 173.380,64.498 174.339 C 64.641 175.299,65.076 176.487,65.464 176.979 C 65.851 177.472,66.168 178.124,66.168 178.429 C 66.168 180.742,73.926 182.191,75.276 180.131 C 76.432 178.367,77.362 174.544,77.608 170.546 C 77.743 168.344,78.096 165.953,78.391 165.234 C 78.687 164.514,79.092 161.822,79.291 159.252 C 79.491 156.682,79.909 153.922,80.221 153.119 C 80.944 151.257,81.575 142.803,81.039 142.150 C 80.581 141.591,74.874 141.508,74.020 142.047 C 73.607 142.308,73.399 143.456,73.223 146.434 C 73.093 148.652,72.718 151.393,72.391 152.523 C 72.062 153.662,71.649 157.224,71.466 160.505 C 71.136 166.429,70.957 167.080,69.657 167.097 C 69.417 167.100,69.033 166.226,68.803 165.155 C 68.574 164.084,68.160 162.949,67.885 162.632 C 67.610 162.315,67.265 161.383,67.119 160.561 C 66.973 159.738,66.553 158.561,66.185 157.944 C 65.818 157.327,65.427 156.223,65.317 155.491 C 65.207 154.759,64.579 153.363,63.922 152.390 L 62.728 150.620 60.429 150.731 C 58.256 150.835,58.098 150.907,57.526 152.052 C 57.193 152.717,56.725 153.499,56.485 153.788 C 56.245 154.077,55.891 155.280,55.699 156.461 C 55.507 157.642,55.100 158.884,54.795 159.220 C 54.491 159.557,54.128 160.585,53.989 161.505 C 53.850 162.425,53.441 163.682,53.081 164.299 C 52.720 164.916,52.305 166.255,52.159 167.275 C 51.851 169.425,51.443 169.018,51.050 166.168 C 50.909 165.140,50.561 163.458,50.278 162.430 C 49.994 161.402,49.602 158.185,49.406 155.281 C 49.209 152.377,48.849 149.628,48.605 149.172 C 48.361 148.716,48.069 147.055,47.956 145.480 C 47.843 143.905,47.584 142.407,47.381 142.150 C 46.949 141.603,41.238 141.502,40.411 142.025 M46.566 142.890 C 46.705 143.029,46.966 145.270,47.147 147.872 C 47.328 150.473,47.717 153.551,48.010 154.712 C 48.304 155.873,48.719 159.093,48.933 161.869 C 49.625 170.837,51.934 174.891,52.906 168.844 C 53.044 167.989,53.393 166.916,53.682 166.459 C 53.972 166.002,54.387 164.797,54.605 163.780 C 54.823 162.764,55.327 161.294,55.725 160.513 C 56.123 159.733,56.449 158.686,56.449 158.186 C 56.449 157.687,56.766 156.587,57.154 155.742 C 57.542 154.897,58.033 153.764,58.246 153.224 C 58.645 152.213,60.280 151.675,61.770 152.064 C 62.489 152.252,64.672 156.449,64.674 157.648 C 64.675 158.016,65.002 158.852,65.400 159.505 C 65.798 160.159,66.242 161.336,66.385 162.122 C 66.528 162.908,66.947 164.140,67.315 164.860 C 67.683 165.579,68.166 166.841,68.388 167.664 C 68.905 169.582,70.816 171.940,71.392 171.370 C 71.618 171.147,71.963 168.539,72.160 165.576 C 72.357 162.612,72.763 159.178,73.064 157.944 C 73.364 156.710,73.786 153.178,74.002 150.093 C 74.493 143.066,74.544 142.879,76.039 142.599 C 80.342 141.792,81.004 142.862,79.670 148.464 C 79.260 150.183,78.817 153.019,78.685 154.766 C 78.553 156.514,78.199 158.836,77.898 159.927 C 77.597 161.018,77.187 163.794,76.987 166.095 C 76.787 168.397,76.439 170.843,76.215 171.532 C 75.990 172.220,75.611 174.154,75.374 175.831 L 74.941 178.879 71.679 178.986 C 68.087 179.105,66.916 178.729,66.916 177.458 C 66.916 177.000,66.591 176.019,66.195 175.279 C 65.798 174.539,65.357 173.280,65.215 172.481 C 65.072 171.682,64.640 170.504,64.254 169.862 C 63.867 169.221,63.551 168.391,63.551 168.018 C 63.551 167.644,63.232 166.655,62.841 165.819 C 62.450 164.983,61.933 163.671,61.692 162.902 C 60.987 160.654,59.757 160.693,59.255 162.980 C 59.127 163.563,58.695 164.680,58.296 165.463 C 57.897 166.246,57.570 167.232,57.570 167.655 C 57.570 168.077,57.246 169.028,56.849 169.768 C 56.452 170.508,56.011 171.767,55.869 172.566 C 55.726 173.365,55.294 174.543,54.908 175.184 C 54.522 175.825,54.206 176.759,54.206 177.259 C 54.206 178.779,53.549 179.065,50.064 179.065 C 46.154 179.065,46.155 179.066,45.814 175.020 C 45.669 173.310,45.315 171.115,45.027 170.144 C 44.738 169.172,44.333 166.443,44.126 164.078 C 43.918 161.714,43.505 158.971,43.208 157.982 C 42.910 156.994,42.556 154.646,42.420 152.765 C 42.285 150.885,41.847 147.952,41.447 146.248 C 41.048 144.544,40.832 142.970,40.968 142.750 C 41.232 142.323,46.121 142.445,46.566 142.890 M104.112 143.022 C 103.701 143.085,102.241 143.243,100.867 143.371 C 99.214 143.526,98.093 143.845,97.552 144.315 C 97.102 144.705,96.375 145.137,95.937 145.275 C 94.869 145.611,90.881 149.803,90.613 150.872 C 90.496 151.339,90.172 151.809,89.893 151.916 C 89.615 152.023,89.267 152.748,89.121 153.528 C 88.975 154.308,88.549 155.620,88.174 156.445 C 87.122 158.761,87.158 169.322,88.224 171.313 C 88.636 172.080,88.972 173.069,88.972 173.511 C 88.972 174.336,90.976 177.608,92.208 178.795 C 93.909 180.435,95.024 181.308,95.416 181.308 C 95.649 181.308,96.187 181.632,96.611 182.027 C 98.885 184.143,119.497 184.270,121.028 182.178 C 122.792 179.767,121.035 174.714,118.847 175.906 C 117.077 176.871,104.284 177.170,102.804 176.282 C 102.290 175.973,101.364 175.472,100.748 175.167 C 98.678 174.146,97.290 172.302,96.714 169.810 C 95.875 166.180,95.212 166.355,109.834 166.355 L 122.226 166.355 122.837 165.423 C 123.858 163.865,123.474 154.190,122.333 152.740 C 121.872 152.154,121.495 151.375,121.495 151.009 C 121.495 150.643,121.117 149.891,120.654 149.338 C 118.988 147.345,117.091 145.421,116.793 145.421 C 116.626 145.421,115.891 145.012,115.160 144.514 C 113.980 143.708,107.329 142.593,105.262 142.855 C 105.041 142.883,104.523 142.958,104.112 143.022 M114.393 145.541 C 115.523 146.164,116.734 146.964,117.082 147.318 C 117.430 147.672,117.851 148.020,118.016 148.093 C 120.022 148.968,122.550 156.198,122.595 161.184 C 122.631 165.230,124.004 164.860,108.941 164.860 L 95.718 164.860 95.106 165.794 C 94.472 166.762,94.620 169.843,95.321 170.277 C 95.500 170.387,95.851 171.097,96.101 171.854 C 96.558 173.238,98.627 175.701,99.333 175.701 C 99.542 175.701,100.177 176.066,100.744 176.513 C 101.481 177.093,102.806 177.471,105.374 177.835 C 108.908 178.336,110.074 178.295,118.570 177.368 C 121.148 177.087,121.771 180.721,119.326 181.778 C 117.197 182.699,99.451 182.384,98.073 181.402 C 97.425 180.939,96.663 180.561,96.381 180.561 C 95.696 180.561,91.999 176.874,90.902 175.097 C 88.253 170.807,88.102 156.091,90.677 153.246 C 90.973 152.919,91.215 152.482,91.215 152.275 C 91.215 151.851,93.854 148.296,94.320 148.093 C 94.486 148.020,94.906 147.670,95.255 147.315 C 98.619 143.884,109.549 142.870,114.393 145.541 M102.731 148.588 C 99.919 149.362,96.960 152.195,96.080 154.953 C 95.818 155.776,95.474 156.617,95.315 156.822 C 94.307 158.128,94.979 160.211,96.506 160.516 C 99.375 161.090,115.029 160.771,115.562 160.128 C 116.255 159.291,116.097 155.243,115.339 154.406 C 115.029 154.063,114.597 153.269,114.378 152.641 C 113.283 149.500,107.158 147.368,102.731 148.588 M110.472 150.467 C 110.885 150.879,111.652 151.551,112.177 151.963 C 113.323 152.860,115.140 156.671,115.140 158.176 L 115.140 159.252 106.003 159.252 C 100.978 159.252,96.794 159.126,96.704 158.972 C 96.346 158.353,97.096 154.734,97.674 154.295 C 98.009 154.040,98.457 153.365,98.669 152.794 C 98.881 152.223,99.351 151.648,99.714 151.516 C 100.077 151.383,100.867 150.868,101.470 150.371 C 102.954 149.146,109.213 149.213,110.472 150.467 M89.559 193.111 C 88.861 193.809,88.649 246.578,89.337 248.387 C 89.688 249.311,89.814 249.346,92.842 249.346 C 97.315 249.346,96.989 250.412,97.123 235.364 C 97.231 223.289,97.275 222.577,97.970 221.869 C 103.362 216.369,103.036 216.615,105.907 215.858 C 107.897 215.333,111.776 215.988,111.776 216.849 C 111.776 217.040,112.154 217.575,112.617 218.037 C 113.454 218.873,113.459 218.953,113.645 233.494 C 113.863 250.555,113.554 249.348,117.709 249.340 C 122.312 249.331,122.242 249.539,122.246 235.890 C 122.249 222.622,121.744 216.391,120.517 214.559 C 120.027 213.829,119.626 213.105,119.626 212.952 C 119.626 212.597,117.206 210.093,116.863 210.093 C 116.721 210.093,116.093 209.715,115.467 209.252 C 112.045 206.724,102.462 208.380,98.554 212.175 C 97.266 213.426,97.195 213.450,97.181 212.635 C 97.173 212.162,97.131 207.722,97.088 202.768 C 97.027 195.773,96.895 193.621,96.496 193.141 C 95.778 192.276,90.418 192.252,89.559 193.111 M146.916 192.986 C 141.506 195.837,143.732 204.112,149.910 204.112 C 152.215 204.112,154.620 202.768,154.997 201.268 C 155.116 200.793,155.449 200.209,155.738 199.970 C 156.409 199.413,156.417 197.218,155.750 196.551 C 155.469 196.270,155.130 195.696,154.996 195.275 C 154.268 192.981,149.493 191.628,146.916 192.986 M223.925 192.987 L 222.991 193.480 222.895 220.663 C 222.783 252.296,222.367 249.346,226.940 249.346 C 231.650 249.346,231.776 249.062,231.776 238.449 C 231.776 231.770,231.856 230.654,232.336 230.654 C 232.645 230.654,232.897 230.834,232.897 231.054 C 232.897 231.274,233.565 232.157,234.381 233.017 C 236.791 235.554,237.877 236.775,239.065 238.281 C 239.682 239.064,240.944 240.523,241.869 241.524 C 242.794 242.526,244.308 244.203,245.234 245.251 C 248.872 249.374,248.815 249.346,253.469 249.346 C 258.334 249.346,259.533 248.260,257.234 245.937 C 256.905 245.604,255.037 243.606,253.084 241.497 C 251.131 239.388,248.313 236.404,246.822 234.865 C 245.332 233.326,244.112 231.929,244.112 231.760 C 244.112 231.591,243.776 231.345,243.364 231.215 C 242.953 231.084,242.617 230.746,242.617 230.463 C 242.617 230.180,242.307 229.729,241.928 229.460 C 239.314 227.605,238.616 228.525,253.211 214.577 C 258.594 209.433,258.447 208.598,252.161 208.598 L 247.964 208.598 240.151 216.431 C 235.854 220.739,232.219 224.145,232.074 223.999 C 231.928 223.853,231.759 217.054,231.699 208.889 C 231.570 191.553,231.885 192.793,227.564 192.609 C 225.838 192.536,224.522 192.673,223.925 192.987 M153.068 194.820 C 154.865 196.576,154.774 200.334,152.897 201.877 C 149.545 204.634,145.629 202.743,145.615 198.361 C 145.601 193.791,149.918 191.740,153.068 194.820 M96.075 203.885 C 96.282 215.013,96.473 215.836,98.408 213.923 C 105.455 206.958,115.299 207.567,119.553 215.230 L 120.541 217.009 120.661 231.589 C 120.727 239.607,120.687 246.547,120.571 247.009 C 120.312 248.039,117.649 248.201,115.894 247.293 L 114.815 246.735 114.697 232.774 L 114.579 218.813 113.509 217.269 C 110.116 212.375,105.188 212.965,99.097 218.996 L 96.262 221.803 96.058 234.733 C 95.946 241.845,95.820 247.706,95.778 247.757 C 95.622 247.947,91.748 247.833,90.935 247.615 L 90.093 247.389 90.093 220.766 C 90.093 206.124,90.212 194.024,90.357 193.879 C 90.503 193.734,91.806 193.664,93.255 193.723 L 95.888 193.832 96.075 203.885 M229.542 194.604 C 229.757 195.168,229.909 201.744,229.912 210.585 C 229.915 218.847,230.068 225.845,230.252 226.134 C 230.929 227.204,232.789 225.719,240.325 218.097 C 244.497 213.878,248.329 210.267,248.839 210.073 C 249.772 209.718,255.923 209.614,255.047 209.967 C 254.790 210.071,254.579 210.439,254.579 210.786 C 254.579 211.133,251.047 214.862,246.729 219.073 C 242.412 223.284,238.879 226.988,238.879 227.305 C 238.878 227.916,239.939 229.179,244.985 234.579 C 257.616 248.099,257.473 247.850,252.640 247.850 C 248.937 247.850,248.998 247.894,243.284 241.167 C 241.603 239.189,239.883 237.224,239.460 236.802 C 238.103 235.446,233.841 230.606,233.549 230.090 C 232.963 229.054,230.607 227.884,230.248 228.451 C 230.067 228.737,229.915 232.894,229.912 237.688 C 229.906 247.731,229.876 247.850,227.399 247.850 C 224.045 247.850,224.299 250.028,224.299 221.306 C 224.299 192.228,224.153 193.645,227.149 193.645 C 228.982 193.645,229.212 193.737,229.542 194.604 M54.953 197.080 C 54.028 197.505,53.019 197.975,52.710 198.125 C 52.263 198.343,52.129 199.382,52.046 203.266 L 51.942 208.135 50.784 208.367 C 50.147 208.494,47.881 208.598,45.748 208.598 C 40.930 208.598,40.374 208.967,40.374 212.167 C 40.374 215.601,41.127 216.073,46.619 216.080 C 49.044 216.084,51.224 216.211,51.464 216.363 C 51.777 216.562,51.934 220.129,52.024 229.038 C 52.148 241.298,52.159 241.446,52.991 242.331 C 53.453 242.823,53.832 243.455,53.832 243.734 C 53.832 244.418,57.484 247.850,58.212 247.850 C 58.530 247.850,59.399 248.227,60.143 248.688 C 62.644 250.236,75.370 250.024,76.986 248.407 C 77.637 247.757,77.984 243.093,77.441 242.289 C 77.102 241.787,70.620 241.615,69.854 242.089 C 68.346 243.020,63.679 241.708,61.957 239.869 L 60.176 237.966 60.275 227.114 L 60.374 216.262 68.588 216.075 L 76.801 215.888 77.274 214.953 C 77.884 213.747,77.894 210.047,77.290 209.234 C 76.881 208.684,75.796 208.594,68.598 208.509 L 60.374 208.411 60.187 202.696 C 59.959 195.721,59.346 195.064,54.953 197.080 M58.982 203.409 C 59.120 210.187,58.369 209.679,68.432 209.805 L 76.449 209.907 76.449 211.963 L 76.449 214.019 68.336 214.206 C 62.391 214.343,60.093 214.522,59.737 214.878 C 59.193 215.422,58.816 232.310,59.254 236.525 C 59.847 242.235,66.394 245.306,73.424 243.174 C 76.583 242.215,76.688 242.273,76.560 244.918 L 76.449 247.219 73.645 247.893 C 70.241 248.711,64.776 248.807,63.034 248.080 C 62.351 247.794,61.136 247.450,60.332 247.314 C 58.670 247.033,54.579 243.731,54.579 242.669 C 54.579 242.321,54.285 241.620,53.925 241.111 C 53.344 240.291,53.250 238.814,53.084 227.957 C 52.858 213.155,53.440 214.469,46.997 214.206 L 42.430 214.019 42.309 212.752 C 42.023 209.754,42.079 209.720,47.251 209.720 C 53.091 209.720,52.840 209.983,53.084 203.589 L 53.271 198.692 54.766 198.456 C 55.589 198.326,56.850 198.242,57.570 198.269 L 58.879 198.318 58.982 203.409 M192.975 208.571 C 192.299 208.743,191.444 209.156,191.077 209.489 C 190.709 209.821,190.282 210.093,190.127 210.093 C 189.972 210.093,189.139 210.673,188.275 211.381 C 186.425 212.896,185.927 212.744,185.063 210.404 L 184.465 208.785 181.496 208.785 C 177.280 208.785,177.582 207.246,177.577 228.785 C 177.572 250.584,177.318 249.346,181.792 249.346 C 186.288 249.346,185.951 250.432,186.168 235.258 L 186.355 222.230 189.159 219.433 C 192.423 216.176,194.631 215.187,197.449 215.718 C 200.454 216.285,200.830 216.559,201.581 218.724 C 202.902 222.531,202.973 223.384,202.982 235.632 C 202.992 250.278,202.725 249.346,206.916 249.346 C 209.649 249.346,210.119 249.250,210.454 248.623 C 211.278 247.084,210.948 217.553,210.093 216.262 C 209.685 215.645,209.350 214.869,209.348 214.539 C 209.344 213.574,207.071 210.978,205.075 209.658 C 203.115 208.362,196.228 207.744,192.975 208.571 M135.607 208.998 C 135.086 209.305,134.953 209.900,134.953 211.923 C 134.953 215.671,135.226 215.840,141.627 216.075 L 146.729 216.262 146.729 228.972 L 146.729 241.682 140.853 241.869 C 134.095 242.084,133.823 242.206,133.572 245.112 C 133.454 246.476,133.603 247.212,134.179 248.131 L 134.942 249.346 150.416 249.346 C 168.048 249.346,166.768 249.607,167.033 245.953 C 167.315 242.048,167.031 241.869,160.552 241.869 L 155.140 241.869 155.119 226.822 C 155.107 218.547,154.978 211.103,154.832 210.280 L 154.567 208.785 145.414 208.699 C 139.656 208.645,136.019 208.756,135.607 208.998 M203.957 210.524 C 207.357 212.431,208.706 214.825,209.719 220.748 C 210.136 223.184,210.178 246.391,209.766 247.040 C 209.586 247.324,208.440 247.630,207.098 247.751 C 203.557 248.072,203.738 248.857,203.738 233.251 L 203.738 219.917 202.710 218.016 C 200.810 214.503,195.673 212.633,193.404 214.629 C 193.022 214.964,192.337 215.352,191.881 215.491 C 190.420 215.936,185.657 221.073,185.140 222.761 C 184.811 223.836,184.673 227.570,184.673 235.385 C 184.673 248.106,184.734 247.850,181.699 247.850 C 178.915 247.850,179.065 248.926,179.065 229.060 C 179.065 208.928,178.958 209.720,181.688 209.720 C 183.708 209.720,183.638 209.628,184.070 212.837 C 184.437 215.567,185.323 215.669,187.935 213.283 C 189.769 211.608,190.289 211.244,192.025 210.418 C 195.624 208.705,200.796 208.751,203.957 210.524 M153.792 210.311 C 153.917 210.636,154.019 217.838,154.019 226.314 C 154.019 244.920,153.383 243.081,159.904 243.351 C 165.339 243.576,166.091 243.877,165.907 245.754 C 165.707 247.790,165.329 247.839,149.853 247.845 C 134.412 247.851,135.327 247.992,135.327 245.607 C 135.327 243.358,135.311 243.364,141.039 243.364 C 148.386 243.364,147.664 244.943,147.664 228.889 C 147.664 212.737,148.218 214.206,142.118 214.206 C 136.444 214.206,135.154 213.278,136.912 210.462 C 137.554 209.436,153.401 209.293,153.792 210.311 M158.675 258.862 C 157.770 259.766,157.757 259.875,157.757 266.308 C 157.757 274.665,158.343 273.857,152.397 273.703 C 147.913 273.587,147.273 273.652,145.958 274.357 C 145.154 274.788,144.055 275.140,143.514 275.140 C 142.973 275.140,142.103 275.477,141.580 275.888 C 141.057 276.299,140.438 276.636,140.204 276.636 C 139.970 276.636,139.362 277.052,138.853 277.561 C 138.344 278.071,137.595 278.665,137.188 278.883 C 136.781 279.101,136.449 279.519,136.449 279.813 C 136.449 280.107,136.130 280.518,135.740 280.727 C 135.351 280.935,134.853 281.619,134.634 282.246 C 134.416 282.874,133.984 283.639,133.675 283.948 C 133.366 284.257,133.006 285.135,132.874 285.900 C 132.743 286.664,132.298 288.011,131.885 288.892 C 130.903 290.990,130.986 301.261,131.998 302.820 C 132.325 303.325,132.705 304.447,132.841 305.314 C 133.234 307.814,136.003 311.725,138.560 313.391 C 141.968 315.611,150.461 315.758,152.721 313.635 C 153.153 313.229,153.696 312.897,153.928 312.897 C 154.160 312.897,154.570 312.590,154.839 312.214 C 155.107 311.838,156.126 311.065,157.103 310.496 L 158.879 309.462 158.879 311.545 C 158.879 314.283,159.721 314.930,162.979 314.695 C 167.097 314.397,166.729 317.145,166.729 286.700 L 166.729 260.244 165.761 259.094 C 164.421 257.501,160.174 257.362,158.675 258.862 M164.673 286.729 L 164.673 313.458 162.430 313.458 L 160.187 313.458 159.941 310.702 C 159.571 306.564,159.221 306.463,155.957 309.557 C 154.453 310.983,153.004 312.150,152.736 312.150 C 152.469 312.150,151.769 312.528,151.181 312.991 C 149.450 314.352,142.124 314.246,140.000 312.829 C 137.783 311.349,136.103 309.540,135.329 307.798 C 134.951 306.947,134.479 306.150,134.280 306.027 C 134.081 305.904,133.804 305.002,133.666 304.023 C 133.527 303.044,133.150 300.912,132.829 299.285 C 131.688 293.516,133.295 286.174,136.716 281.523 C 137.962 279.829,140.790 277.383,141.504 277.383 C 141.778 277.383,142.268 277.117,142.593 276.793 C 143.594 275.792,149.528 275.037,154.128 275.326 C 159.599 275.669,159.252 276.186,159.252 267.693 C 159.252 259.580,159.190 259.734,162.427 259.891 L 164.673 260.000 164.673 286.729 M62.811 273.571 C 61.447 273.635,60.140 273.908,59.820 274.194 C 59.508 274.474,58.579 274.820,57.757 274.964 C 56.935 275.107,55.841 275.499,55.327 275.835 C 54.813 276.171,53.927 276.650,53.359 276.899 C 52.790 277.148,52.225 277.611,52.104 277.928 C 51.982 278.245,51.690 278.508,51.455 278.513 C 51.058 278.520,50.528 279.082,48.085 282.081 C 47.572 282.712,47.028 283.721,46.878 284.324 C 46.728 284.927,46.351 285.608,46.040 285.838 C 44.238 287.169,44.368 301.174,46.215 304.670 C 46.703 305.594,47.103 306.555,47.103 306.806 C 47.103 307.058,47.439 307.443,47.850 307.664 C 48.262 307.884,48.602 308.268,48.606 308.518 C 48.610 308.768,49.205 309.477,49.928 310.093 C 50.651 310.710,51.682 311.593,52.218 312.056 C 52.754 312.519,53.482 312.897,53.836 312.897 C 54.189 312.897,54.904 313.232,55.424 313.641 C 57.100 314.959,70.637 315.360,73.832 314.185 C 76.720 313.124,78.160 308.815,76.262 306.916 C 75.357 306.011,75.406 306.011,71.215 306.957 C 66.382 308.049,63.534 308.240,62.208 307.561 C 61.610 307.256,60.535 306.879,59.817 306.725 C 58.322 306.402,55.040 303.465,54.711 302.155 C 54.594 301.688,54.180 300.683,53.791 299.920 C 51.519 295.463,54.057 286.121,58.294 283.345 C 59.027 282.866,59.844 282.211,60.110 281.891 C 60.865 280.982,71.026 281.039,72.042 281.958 C 74.325 284.025,77.010 282.912,77.009 279.898 C 77.008 277.027,76.080 275.423,74.206 275.054 C 73.383 274.892,72.206 274.516,71.589 274.219 C 70.402 273.647,66.828 273.383,62.811 273.571 M102.243 273.523 C 101.421 273.620,100.495 273.926,100.187 274.202 C 99.879 274.477,98.972 274.824,98.173 274.973 C 97.374 275.121,96.423 275.539,96.060 275.902 C 95.698 276.265,95.067 276.668,94.660 276.797 C 93.230 277.251,88.972 282.053,88.972 283.213 C 88.972 283.439,88.650 283.995,88.257 284.449 C 87.863 284.902,87.428 286.148,87.289 287.216 C 87.150 288.285,86.799 289.880,86.509 290.761 C 85.832 292.817,85.832 297.089,86.509 299.146 C 86.799 300.027,87.151 301.631,87.292 302.710 C 87.432 303.789,87.713 304.775,87.916 304.901 C 88.120 305.026,88.596 305.851,88.974 306.734 C 89.722 308.479,93.384 312.331,94.689 312.745 C 95.135 312.886,95.923 313.315,96.441 313.697 C 99.063 315.632,111.027 315.631,113.652 313.696 C 114.170 313.315,114.997 312.874,115.490 312.718 C 116.543 312.384,121.495 307.477,121.495 306.768 C 121.495 306.501,121.821 305.908,122.218 305.449 C 122.616 304.991,123.110 303.826,123.317 302.861 C 123.524 301.896,123.955 300.605,124.274 299.992 C 125.185 298.245,125.096 289.872,124.141 287.546 C 123.746 286.583,123.322 285.187,123.199 284.444 C 123.076 283.701,122.643 282.792,122.236 282.423 C 121.828 282.055,121.495 281.557,121.495 281.318 C 121.495 280.656,117.559 276.636,116.910 276.636 C 116.598 276.636,116.248 276.392,116.134 276.094 C 116.020 275.797,115.203 275.362,114.318 275.129 C 113.434 274.896,112.326 274.459,111.857 274.159 C 110.960 273.584,105.039 273.192,102.243 273.523 M191.402 273.522 C 190.682 273.622,189.841 273.924,189.533 274.193 C 189.224 274.463,188.383 274.808,187.664 274.960 C 186.944 275.112,185.850 275.630,185.234 276.111 C 181.633 278.919,180.959 279.527,180.512 280.374 C 180.241 280.888,179.636 281.784,179.168 282.365 C 178.700 282.946,178.318 283.690,178.318 284.018 C 178.318 284.346,178.029 284.933,177.676 285.323 C 175.997 287.179,175.900 301.952,177.552 304.306 C 177.915 304.824,178.341 305.654,178.499 306.150 C 179.174 308.277,183.525 312.897,184.854 312.897 C 185.110 312.897,185.742 313.230,186.259 313.636 C 186.921 314.157,188.227 314.491,190.687 314.770 C 192.605 314.987,194.558 315.261,195.027 315.379 C 195.495 315.497,197.269 315.408,198.967 315.183 C 200.666 314.957,203.559 314.670,205.395 314.543 C 209.640 314.252,210.841 313.336,210.841 310.392 C 210.841 306.982,208.671 305.973,204.774 307.570 C 202.460 308.518,194.856 308.499,192.513 307.539 C 188.959 306.082,186.670 304.488,186.363 303.256 C 186.224 302.699,185.846 301.950,185.524 301.593 C 185.201 301.235,184.857 300.105,184.759 299.083 L 184.580 297.223 198.285 297.116 C 209.968 297.025,212.046 296.927,212.369 296.449 C 212.988 295.532,212.610 287.016,211.903 285.936 C 211.579 285.441,211.189 284.473,211.039 283.786 C 210.381 280.791,205.143 275.173,202.985 275.147 C 202.674 275.143,201.782 274.799,201.003 274.381 C 199.542 273.598,194.261 273.126,191.402 273.522 M110.931 275.506 C 115.289 276.485,120.748 280.305,120.748 282.376 C 120.748 282.658,121.077 283.309,121.480 283.821 C 121.971 284.446,122.470 286.278,122.997 289.396 L 123.781 294.041 123.034 298.346 C 121.809 305.399,118.606 309.952,113.040 312.551 C 109.756 314.084,102.403 314.574,99.439 313.457 C 98.514 313.108,97.179 312.629,96.473 312.393 C 94.861 311.853,90.185 307.246,89.864 305.880 C 89.732 305.319,89.267 304.271,88.830 303.551 C 87.741 301.753,87.602 287.664,88.662 286.488 C 89.006 286.106,89.411 285.298,89.563 284.692 C 90.076 282.638,92.799 279.588,96.341 277.103 C 97.909 276.003,104.798 274.361,106.729 274.627 C 107.140 274.684,109.031 275.079,110.931 275.506 M69.239 275.333 C 75.655 276.194,75.140 275.920,75.140 278.481 C 75.140 281.515,74.930 281.993,73.891 281.314 C 73.447 281.024,71.258 280.516,69.027 280.185 C 61.502 279.070,56.772 281.116,53.900 286.729 C 53.637 287.243,53.144 288.168,52.806 288.785 C 52.316 289.678,52.196 290.936,52.216 294.953 C 52.241 299.881,52.329 300.351,53.710 302.991 C 54.363 304.239,57.174 307.290,57.671 307.290 C 57.847 307.290,58.926 307.733,60.070 308.274 C 62.560 309.452,69.997 309.472,71.796 308.305 C 72.299 307.979,73.215 307.659,73.832 307.594 L 74.953 307.477 74.953 309.679 C 74.953 311.265,74.796 311.958,74.393 312.157 C 69.485 314.570,61.942 314.691,55.723 312.455 C 52.770 311.393,48.110 307.080,47.650 304.984 C 47.500 304.299,47.063 303.152,46.679 302.435 C 45.648 300.511,45.643 289.787,46.672 287.845 C 47.051 287.128,47.482 286.052,47.629 285.452 C 48.072 283.641,53.213 277.757,54.352 277.757 C 54.627 277.757,55.331 277.380,55.916 276.920 C 56.685 276.315,58.071 275.912,60.920 275.465 C 63.087 275.124,64.896 274.828,64.940 274.806 C 64.985 274.784,66.919 275.021,69.239 275.333 M199.431 275.411 C 203.292 276.240,208.598 279.924,208.598 281.775 C 208.598 281.982,208.849 282.360,209.156 282.615 C 209.463 282.869,209.864 283.689,210.046 284.436 C 211.951 292.231,212.075 295.671,210.467 296.116 C 209.953 296.258,203.876 296.391,196.962 296.411 C 182.564 296.454,183.457 296.221,183.904 299.828 C 184.320 303.180,186.441 306.201,189.325 307.548 C 189.953 307.842,190.888 308.322,191.402 308.615 C 192.527 309.256,203.685 309.368,206.303 308.765 C 209.712 307.979,210.197 311.256,206.916 312.897 C 204.238 314.236,190.688 314.342,188.224 313.044 C 187.402 312.610,186.283 312.149,185.737 312.018 C 185.191 311.887,183.846 310.877,182.746 309.774 C 179.806 306.822,179.554 306.481,179.260 305.047 C 179.113 304.327,178.783 303.402,178.527 302.991 C 177.315 301.041,177.035 289.908,178.145 287.743 C 178.483 287.082,179.003 285.743,179.301 284.766 C 179.598 283.790,179.992 282.991,180.176 282.991 C 180.360 282.991,180.612 282.670,180.737 282.277 C 181.000 281.449,184.998 277.383,185.550 277.383 C 185.755 277.383,186.227 277.108,186.598 276.772 C 188.450 275.096,194.821 274.420,199.431 275.411 M192.521 279.207 C 189.535 280.181,186.765 282.332,185.534 284.633 C 184.068 287.372,183.888 287.966,184.001 289.697 L 184.112 291.402 194.160 291.502 C 201.260 291.572,204.358 291.476,204.721 291.175 C 205.382 290.627,205.377 288.320,204.712 287.045 C 204.427 286.500,203.995 285.449,203.751 284.711 C 202.632 281.321,196.002 278.072,192.521 279.207 M102.531 279.997 C 97.612 281.449,95.009 284.908,93.960 291.387 C 93.240 295.839,93.864 301.098,95.368 303.256 C 95.757 303.813,96.075 304.411,96.075 304.584 C 96.075 304.971,98.041 306.791,99.813 308.046 C 101.800 309.452,109.073 309.447,110.992 308.037 C 116.908 303.694,119.220 295.520,116.651 288.037 C 115.383 284.345,112.608 280.975,110.472 280.537 C 109.853 280.410,108.625 280.069,107.744 279.779 C 105.764 279.128,105.427 279.142,102.531 279.997 M146.805 280.285 C 135.408 283.215,135.622 309.159,147.043 309.159 C 150.341 309.159,155.500 305.399,158.310 300.947 L 159.290 299.394 159.178 290.644 C 159.047 280.437,159.285 281.028,154.951 280.198 C 151.402 279.519,149.713 279.537,146.805 280.285 M197.601 281.076 C 200.471 281.633,202.889 284.484,203.282 287.776 C 203.684 291.142,204.497 290.895,193.458 290.760 L 184.860 290.654 184.956 289.700 C 185.009 289.176,185.387 288.089,185.797 287.285 C 186.207 286.481,186.542 285.616,186.542 285.362 C 186.542 284.443,190.293 281.170,191.524 281.016 C 193.645 280.750,196.042 280.774,197.601 281.076 M111.176 282.336 C 111.772 282.902,112.486 283.364,112.765 283.364 C 113.043 283.364,113.271 283.604,113.271 283.897 C 113.271 284.189,113.674 284.908,114.167 285.494 C 116.293 288.020,116.468 300.288,114.410 302.498 C 113.989 302.949,113.645 303.627,113.645 304.005 C 113.645 304.393,113.239 304.846,112.710 305.047 C 112.196 305.242,111.776 305.659,111.776 305.972 C 111.776 306.286,111.564 306.542,111.305 306.542 C 111.047 306.542,110.045 306.963,109.080 307.477 C 106.931 308.621,104.297 308.715,102.424 307.716 C 101.708 307.333,100.701 306.889,100.187 306.729 C 99.121 306.397,96.822 304.115,96.822 303.388 C 96.822 303.122,96.444 302.423,95.981 301.835 C 94.694 300.198,94.696 289.332,95.984 287.694 C 96.445 287.108,96.822 286.316,96.822 285.934 C 96.822 285.552,97.361 284.775,98.019 284.208 C 98.677 283.641,99.597 282.813,100.062 282.366 C 101.838 280.665,109.394 280.644,111.176 282.336 M157.084 281.794 C 157.603 282.311,158.021 296.961,157.585 299.300 C 156.840 303.290,148.105 309.445,145.421 307.870 C 144.907 307.569,144.105 307.150,143.640 306.939 C 143.175 306.729,142.601 306.133,142.365 305.615 C 142.129 305.097,141.806 304.673,141.647 304.673 C 139.551 304.673,139.756 288.163,141.887 285.437 C 143.529 283.336,145.202 281.946,146.721 281.421 C 148.072 280.953,156.548 281.258,157.084 281.794 M216.940 324.109 C 215.216 324.816,214.675 328.320,216.075 329.720 C 217.105 330.750,259.393 330.907,260.851 329.885 C 261.848 329.187,262.039 325.865,261.152 324.651 C 260.569 323.853,218.811 323.341,216.940 324.109 M259.222 325.087 C 260.064 325.410,260.064 329.169,259.222 329.493 C 258.453 329.788,219.140 329.780,218.037 329.484 C 217.065 329.223,216.745 325.478,217.664 325.107 C 218.337 324.836,258.515 324.816,259.222 325.087 " stroke="none" fill="#7ab9fc" fill-rule="evenodd"></path><path id="path4" d="M50.670 13.806 C 50.296 14.412,51.110 14.596,51.592 14.015 C 51.968 13.562,51.945 13.458,51.470 13.458 C 51.148 13.458,50.788 13.615,50.670 13.806 M42.150 24.329 C 41.320 24.812,41.301 25.383,42.118 25.263 C 42.461 25.213,42.783 24.891,42.833 24.548 C 42.883 24.206,42.897 23.930,42.864 23.937 C 42.831 23.943,42.509 24.119,42.150 24.329 M33.271 35.327 C 33.011 35.640,32.971 35.888,33.179 35.888 C 33.385 35.888,33.763 35.636,34.019 35.327 C 34.278 35.014,34.319 34.766,34.110 34.766 C 33.905 34.766,33.527 35.019,33.271 35.327 M24.154 46.157 C 23.745 46.781,23.703 47.021,24.025 46.897 C 24.624 46.668,25.544 45.234,25.093 45.234 C 24.909 45.234,24.487 45.649,24.154 46.157 " stroke="none" fill="#00ffff" fill-rule="evenodd"></path></g></svg>